<svg xmlns="http://www.w3.org/2000/svg" version="1.1" xmlns:xlink="http://www.w3.org/1999/xlink" width="1000" height="1000"><g clip-path="url(#SvgjsClipPath1030)"><rect width="1000" height="1000" fill="#ffffff"></rect><g transform="matrix(7.5,0,0,7.5,50,50)"><svg xmlns="http://www.w3.org/2000/svg" version="1.1" xmlns:xlink="http://www.w3.org/1999/xlink" width="120" height="120"><svg xmlns="http://www.w3.org/2000/svg" viewBox="0 0 120 120" width="120" height="120"><defs><linearGradient id="a" gradientUnits="userSpaceOnUse" x1="-10.41" y1="58.51" x2="63.65" y2="27.13"><stop offset="0" stop-color="#c48c40"></stop><stop offset=".141" stop-color="#e0be78"></stop><stop offset=".278" stop-color="#fdf0b1"></stop><stop offset=".412" stop-color="#e2c07b"></stop><stop offset=".588" stop-color="#c69044"></stop><stop offset=".8" stop-color="#e0bc6c"></stop><stop offset="1" stop-color="#fae994"></stop></linearGradient><linearGradient id="b" gradientUnits="userSpaceOnUse" x1="80.5" y1="69.92" x2="80.49" y2="73.37"><stop offset="0" stop-color="#00a0e3"></stop><stop offset=".271" stop-color="#15baee"></stop><stop offset=".51" stop-color="#088ebe"></stop><stop offset=".741" stop-color="#a2d9f7"></stop><stop offset="1" stop-color="#79cadf"></stop></linearGradient><linearGradient id="c" href="#b" x1="77.84" y1="42.8" x2="77.82" y2="61.89"></linearGradient><linearGradient id="d" href="#a" x1="18.95" y1="65.73" x2="137.67" y2="62.83"></linearGradient><clipPath id="SvgjsClipPath1030"><rect width="1000" height="1000" x="0" y="0" rx="400" ry="400"></rect></clipPath></defs><path d="M46.53 65.91c0 .44-.09.83-.28 1.17a1.92 1.92 0 0 1-.82.8c-.35.19-.77.29-1.25.29h-1.7v-4.51h1.7c.48 0 .9.1 1.25.28.36.19.63.45.82.79s.28.74.28 1.18zm-2.45 1.29c.43 0 .76-.12.99-.34.24-.23.36-.54.36-.95s-.12-.73-.36-.95c-.23-.23-.56-.34-.99-.34h-.51v2.58h.51zm6.64.97l-.97-1.7h-.25v1.7h-1.09v-4.51h1.86c.36 0 .66.07.9.19a1.25 1.25 0 0 1 .56.5 1.53 1.53 0 0 1 .18.74c0 .33-.09.61-.27.84s-.44.38-.78.47l1.07 1.77h-1.21zm-1.22-2.45h.67c.22 0 .38-.05.48-.14.1-.1.15-.24.15-.42s-.05-.32-.15-.43c-.1-.1-.26-.15-.48-.15h-.67v1.14zm7.01 1.63l-1.97.82H53.4l1.65-4.47h1.25l1.66 4.47H56.8l-.29-.82zm-.28-.83l-.56-1.66-.56 1.66h1.12zm4.5.07v1.58h-1.09v-4.51h1.76c.54 0 .94.14 1.23.4.28.27.42.63.42 1.08a1.48 1.48 0 0 1-.19.74c-.13.22-.31.4-.56.52-.25.13-.55.19-.9.19h-.67zm.55-.87c.44 0 .66-.2.66-.58 0-.4-.22-.6-.66-.6h-.55v1.18h.55zm4.65-1.19v.94h1.53v.83h-1.53v1h1.72v.87h-2.81v-4.51h2.81v.87h-1.72zm6.83 2.37a1.26 1.26 0 0 1-.18.66c-.12.2-.3.36-.53.48-.24.12-.53.17-.86.17-.51 0-.92-.12-1.25-.36-.33-.25-.51-.6-.54-1.04h1.16c.02.17.08.31.19.4.1.1.23.15.39.15.14 0 .25-.04.34-.11.08-.08.12-.18.12-.31 0-.11-.04-.21-.11-.29-.08-.07-.17-.14-.28-.18a7.61 7.61 0 0 0-.46-.18l-.7-.28c-.18-.09-.34-.23-.47-.41-.12-.18-.19-.42-.19-.71 0-.26.07-.5.2-.69.14-.2.33-.35.57-.45.24-.11.51-.16.82-.16.51 0 .9.12 1.2.36s.46.57.5.98H71.5c-.02-.15-.07-.26-.16-.35s-.21-.13-.36-.13c-.12 0-.23.03-.3.1-.08.07-.12.17-.12.3 0 .1.03.2.1.27a.91.91 0 0 0 .27.18c.1.05.26.11.46.18.29.1.52.19.7.29.19.1.34.23.47.42.14.18.2.42.2.71zm9.32-3.24v4.51h-1.09v-4.51h1.09zm6.02 4.51h-1.09l-1.83-2.77v2.77h-1.09v-4.51h1.09l1.83 2.79v-2.79h1.09v4.51zm5.25-1.27a1.26 1.26 0 0 1-.18.66c-.13.2-.3.36-.54.48s-.52.17-.86.17c-.5 0-.92-.12-1.25-.36-.32-.25-.5-.6-.53-1.04h1.16c.02.17.08.31.18.4.1.1.24.15.4.15.14 0 .25-.04.33-.11.08-.08.12-.18.12-.31 0-.11-.04-.21-.11-.29-.07-.07-.17-.14-.28-.18-.11-.05-.26-.11-.46-.18l-.7-.28c-.18-.09-.33-.23-.46-.41s-.19-.42-.19-.71c0-.26.06-.5.2-.69a1.25 1.25 0 0 1 .56-.45c.24-.11.52-.16.83-.16.5 0 .9.12 1.19.36.3.24.47.57.5.98h-1.17c-.03-.15-.08-.26-.17-.35-.08-.09-.2-.13-.35-.13-.13 0-.23.03-.31.1s-.12.17-.12.3c0 .1.03.2.11.27s.15.13.26.18.26.11.46.18c.29.1.53.19.71.29s.34.23.47.42c.13.18.2.42.2.71zm5.1-3.24v.87h-1.22v3.64h-1.1v-3.64h-1.21v-.87h3.53zm5.62 0l-1.57 3.01v1.5h-1.09v-1.5l-1.56-3.01h1.24l.87 1.84.87-1.84h1.24zm2.77 3.67h1.45v.84h-2.54v-4.51h1.09v3.67zm4.3-2.8v.94h1.53v.83h-1.53v1h1.72v.87h-2.81v-4.51h2.81v.87h-1.72z" fill="url(#d)"></path><path d="M6.28 52.37H7.7a25.27 25.27 0 0 0 10.36-15.76H8.85v14.13a35.71 35.71 0 0 1-1.22.93V35.39h40.54v5.97h-1.22v-4.75H27.58a26.46 26.46 0 0 1-10.14 16.21c.75.62.95 1.67.49 2.52 1.67.91 1.71 2.82 1.77 5.62.18 8.12.06 16.23.06 24.34-.93-.91-1.85-1.8-2.67-2.82-1.23-1.54-2.23-3.26-2.3-5.28-1.67-1.28-3.73-3.24-3.75-5.51V58c.02-.76-.65-1.34-1.3-1.61H6.28c-1.11 0-2.01-.91-2.01-2.01a2.01 2.01 0 0 1 2.01-2.01zm41.89 17.32v6.24H20.4l.01-1.22h26.54v-5.02h1.22zM19.3 36.61c-1.2 6.22-4.59 11.82-9.56 15.76h2.1A25.27 25.27 0 0 0 22.2 36.61h-2.9zm4.14 0c-1.2 6.22-4.59 11.82-9.56 15.76h2.1a25.27 25.27 0 0 0 10.36-15.76h-2.9zM12.45 75.93H7.63V57h1.22v17.71h2.62a9.52 9.52 0 0 0 .98 1.22zm2.34-.3V58.81c.02-1.03-.55-1.97-1.46-2.42h-1.62c.36.48.56 1.04.54 1.63v13.66c.02 1.53 1.45 3.01 2.54 3.95zm1.38-20.46a.8.8 0 0 0 .79-.79.8.8 0 0 0-.79-.79H6.28a.78.78 0 0 0-.79.79.79.79 0 0 0 .79.79h9.89zm.78 1.06a2.05 2.05 0 0 1-.78.16h-.97a3.86 3.86 0 0 1 .8 2.43v18.11c-.01 1.15.36 2.21.93 3.19.45.78 1.01 1.51 1.61 2.2l.03-5.2-.08-16.13c-.06-2.56-.09-4.21-1.54-4.76z" fill="url(#a)"></path><g fill-rule="nonzero"><path d="M54.74 47.94c-.06-2.93-3.02-5.09-5.52-5.14h-.03-6.21c-.44 0-.8.36-.8.8v17.27c0 .44.36.8.8.8h6.21.03c2.66-.05 5.51-1.3 5.57-5.17l-.05-8.56h0zm-7.79 12.41c-.06-.01-.88-.01-1.58-.01V44.3h1.58c1.96 0 4.34 1.34 4.33 4.04l.02 7.91c0 .88-1.05 4.39-4.35 4.1h0zm23.23-7.3s.13 7.06-6.04 6.89c-2.02-.06-3.95-1.68-4.24-4.18 2.19-.09 1.14-.69 2.78-.85l4.54.09c.2 0 .35-.16.35-.35v-.24c.05-.59 0-1.86-.02-2.52-.08-3.13-3.15-3.96-4.88-4-5.59-.15-6.6 4.8-6.53 6.99.17 5.27 4.34 6.83 7.63 6.79 7.41-.09 7.37-8.58 7.37-8.58l-.96-.04zm-5.32.13c.01.07-.01.23-.01.43h-1.89c-1.14.09-.6.56-3.08 1.09.25-6.42 4.66-6.4 4.98-1.52h0zm19.09-.13s.13 7.06-6.04 6.89c-2.22-.07-4.32-2.01-4.27-4.93.12-6.73 4.66-6.79 4.99-1.83.02.22-.03.69.68.69 1.68 0 2.07.46 2.01-1.98-.08-3.13-3.15-3.96-4.88-4-5.59-.15-6.6 4.8-6.53 6.99.17 5.27 4.34 6.83 7.63 6.79 7.41-.09 7.37-8.58 7.37-8.58l-.96-.04zm15.91 0s-.57 6.63-2.95 6.71c-1.49.05-1.54-3.27-1.52-4.33a7.79 7.79 0 0 0 .03-.69c0-3.94-2.63-7.15-5.87-7.15s-5.87 3.21-5.87 7.15 2.63 7.15 5.87 7.15c1.26-.02 2.48-.5 3.42-1.34.77.68 1.88 1.21 3.42 1.16 3.94-.12 4.47-8.62 4.47-8.62l-1-.04zm-8.6 4.72c.07.28.18.56.3.83-.49 1.29-1.21 2.18-2.01 2.18-1.47 0-2.66-2.96-2.66-6.04 0-3.09 1.19-5.98 2.66-5.98 1.23 0 2.26 2.02 2.57 4.48-.72 1.15-1.26 2.57-.86 4.53h0zm21.23-4.72s-.56 6.63-2.94 6.71c-1.78.07-1.52-4.64-1.52-4.64l-.09-4.89c0-2.94-.52-2.38-3.64-2.38-1.73 0-1.51-.79-1.39-1.17.35-1.04-1.99-1.39-2.33.26-.35 1.65-.79 6.41-.79 6.41h1.04l.26-2.64c.12-1.03.23-1.09.83-1.11.08-.01.78-.02 2.26-.02.17 0 .64-.21.6.88-.03.87-.01 2.29-.01 3.37l-.06 4.47s.16 3.54 4.31 3.41c3.94-.12 4.46-8.62 4.46-8.62l-.99-.04z" fill="url(#c)"></path><path d="M55.07 71.37c.18.04.32.12.42.25s.15.28.15.45c0 .25-.08.44-.24.58-.17.14-.41.21-.72.21h-1.35v-2.9h1.32c.3 0 .53.06.69.19s.24.31.24.55a.7.7 0 0 1-.14.44c-.09.12-.22.19-.37.23zm-1.03-.22h.45c.25 0 .37-.11.37-.32 0-.2-.12-.31-.37-.31h-.45v.63zm.5 1.14c.26 0 .39-.1.39-.32 0-.1-.04-.18-.11-.24s-.16-.09-.29-.09h-.49v.65h.5zm2.35.04h.93v.53h-1.63v-2.9h.7v2.37zm2.13-2.37v2.9h-.7v-2.9h.7zm3.24 2.9h-.7l-1.18-1.78v1.78h-.7v-2.9h.7l1.18 1.8v-1.8h.7v2.9zm3.27-1.46c0 .29-.06.54-.19.76a1.3 1.3 0 0 1-.52.52c-.23.12-.5.18-.81.18h-1.09v-2.9h1.09c.31 0 .58.06.81.18a1.22 1.22 0 0 1 .52.51c.13.22.19.47.19.75zm-1.58.83c.27 0 .49-.07.64-.21.15-.15.23-.35.23-.62 0-.26-.08-.46-.23-.61-.15-.14-.37-.21-.64-.21h-.33v1.65h.33zm4.23-.18c0 .15-.03.29-.11.42s-.20.23-.35.31c-.15.07-.33.11-.55.11-.33 0-.59-.08-.8-.24-.22-.16-.33-.38-.35-.66h.75a.44.44 0 0 0 .11.26c.07.06.16.09.26.09.09 0 .16-.02.21-.07.06-.05.08-.12.08-.20 0-.07-.02-.13-.07-.18s-.11-.09-.18-.13l-.29-.11c-.19-.06-.34-.12-.45-.18-.12-.06-.22-.15-.30-.26-.09-.12-.13-.27-.13-.46 0-.17.05-.32.13-.44.09-.13.21-.23.37-.29.15-.07.33-.10.53-.10.32 0 .58.07.77.22.19.16.30.37.32.64h-.76c-.01-.10-.05-.17-.10-.23-.06-.06-.14-.09-.23-.09-.08 0-.15.03-.20.07s-.08.11-.08.19c0 .07.03.13.07.18.05.05.10.09.17.12s.17.06.30.11c.18.06.33.12.45.19a.88.88 0 0 1 .31.27c.08.11.12.27.12.46zm3.94.81l-.34-.40-.07.10a.67.67 0 0 1-.26.24c-.12.06-.26.09-.41.09a1.0 1.0 0 0 1-.50-.12.82.82 0 0 1-.32-.32.9.9 0 0 1-.12-.46c0-.24.07-.43.19-.58.13-.16.29-.24.49-.27l-.05-.08c-.05-.07-.08-.14-.10-.20-.02-.07-.03-.15-.03-.23a.59.59 0 0 1 .10-.34c.06-.11.16-.20.29-.26.12-.07.27-.10.45-.10.25 0 .44.05.58.16a.78.78 0 0 1 .28.41c.04.12.05.26.05.40h-.66c0-.05 0-.10-.01-.15 0-.16-.08-.24-.22-.24-.06 0-.11.02-.15.06-.04.03-.06.08-.06.13s.01.09.03.13c.03.04.06.09.10.15l1.44 1.88h-.70zm-1.07-.55a.3.3 0 0 0 .23-.09.29.29 0 0 0 .10-.23.33.33 0 0 0-.10-.24c-.07-.06-.16-.09-.25-.09-.10 0-.17.02-.23.08-.06.05-.09.13-.09.23s.03.18.09.25c.07.06.15.09.25.09zm6.94-2.33v2.88h-.70v-1.80l-.63 1.80h-.60l-.63-1.80v1.80h-.70v-2.88h.85l.79 2.01.77-2.01h.85zm2.04-.06c.27 0 .52.06.74.19a1.35 1.35 0 0 1 .53.53 1.48 1.48 0 0 1 .19.76c0 .29-.06.54-.19.77a1.42 1.42 0 0 1-.53.53c-.23.13-.47.19-.74.19s-.52-.06-.74-.19a1.35 1.35 0 0 1-.53-.53c-.13-.23-.20-.48-.20-.77 0-.28.07-.54.20-.76.13-.23.30-.41.53-.53.22-.13.47-.19.74-.19zm0 .65c-.23 0-.42.07-.55.22-.14.15-.21.35-.21.61s.07.46.21.61c.13.15.32.22.55.22.22 0 .41-.07.54-.22.14-.15.21-.35.21-.61 0-.25-.07-.46-.21-.61-.13-.15-.31-.22-.54-.22zm4.11 1.48c0 .15-.03.29-.11.42s-.20.23-.35.31c-.15.07-.33.11-.55.11-.32 0-.59-.08-.80-.24a.87.87 0 0 1-.35-.66h.75c.01.11.05.19.12.26.06.06.15.09.25.09.09 0 .16-.02.22-.07.05-.05.07-.12.07-.20 0-.07-.02-.13-.07-.18s-.11-.09-.18-.13l-.29-.11c-.19-.06-.34-.12-.45-.18-.12-.06-.22-.15-.30-.26-.08-.12-.13-.27-.13-.46 0-.17.05-.32.13-.44.09-.13.21-.23.37-.29.15-.07.33-.10.53-.10.32 0 .58.07.77.22.19.16.30.37.32.64h-.76c-.01-.10-.05-.17-.10-.23-.06-.06-.14-.09-.23-.09-.08 0-.15.03-.20.07s-.08.11-.08.19c0 .07.03.13.07.18.05.05.10.09.17.12s.17.06.30.11c.18.06.34.12.45.19a.88.88 0 0 1 .31.27c.08.11.12.27.12.46zm2.64 1.32l-.38-.51a1.71 1.71 0 0 1-.31.03c-.27 0-.52-.06-.74-.19a1.35 1.35 0 0 1-.53-.53c-.13-.23-.20-.48-.20-.77 0-.28.07-.54.20-.76.13-.23.30-.41.53-.53.22-.13.47-.19.74-.19s.52.06.74.19a1.35 1.35 0 0 1 .53.53 1.48 1.48 0 0 1 .19.76c0 .25-.05.48-.15.69a1.43 1.43 0 0 1-.43.51l.65.77h-.84zm-1.44-1.97c0 .26.06.46.20.61.13.15.32.22.55.22.22 0 .41-.07.54-.22.14-.15.21-.35.21-.61 0-.25-.07-.46-.21-.61-.13-.15-.31-.22-.54-.22s-.42.07-.55.22c-.14.15-.20.35-.20.61zm3.46-1.44v1.68c0 .19.04.33.13.43.09.11.21.16.37.16.17 0 .29-.05.38-.16.09-.10.13-.24.13-.43v-1.68h.70v1.68c0 .27-.05.50-.16.69a1.05 1.05 0 0 1-.44.42 1.38 1.38 0 0 1-.62.14 1.38 1.38 0 0 1-.62-.14 1.0 1.0 0 0 1-.42-.42c-.10-.19-.15-.42-.15-.69v-1.68h.70zm3.05 0v2.90h-.70v-2.90h.70zm2.75 0v.56h-.79v2.34h-.71v-2.34h-.78v-.56h2.28zm1.85-.04c.27 0 .52.06.74.19a1.35 1.35 0 0 1 .53.53 1.48 1.48 0 0 1 .19.76c0 .29-.06.54-.19.77a1.42 1.42 0 0 1-.53.53c-.23.13-.47.19-.74.19-.28 0-.52-.06-.75-.19-.22-.13-.39-.30-.52-.53s-.20-.48-.20-.77c0-.28.07-.54.20-.76.13-.23.30-.41.52-.53.23-.13.47-.19.75-.19zm0 .65c-.23 0-.42.07-.55.22-.14.15-.21.35-.21.61s.07.46.21.61c.13.15.32.22.55.22a.7.7 0 0 0 .54-.22c.14-.15.21-.35.21-.61 0-.25-.07-.46-.21-.61-.13-.15-.31-.22-.54-.22zm6.09 2.29h-.71l-1.17-1.78v1.78h-.70v-2.90h.70l1.17 1.80v-1.80h.71v2.90zm1.36-2.34v.61h.98v.53h-.98v.64h1.10v.56h-1.81v-2.90H105v.56h-1.10zm3.76-.56v.56h-.79v2.34h-.71v-2.34h-.78v-.56h2.28z" fill="url(#b)"></path></g></svg></svg></g></g></svg>