<?xml version="1.0" encoding="UTF-8"?>
<svg version="1.1" xmlns="http://www.w3.org/2000/svg" width="120" height="120">
<path d="M0 0 C39.6 0 79.2 0 120 0 C120 39.6 120 79.2 120 120 C80.4 120 40.8 120 0 120 C0 80.4 0 40.8 0 0 Z " fill="#FEFEFE" transform="translate(0,0)"/>
<path d="M0 0 C12.21 0 24.42 0 37 0 C37 1.65 37 3.3 37 5 C36.67 5.33 36.34 5.66 36 6 C36.94875 6.28875 37.8975 6.5775 38.875 6.875 C42 8 42 8 44 10 C44.625 12.125 44.625 12.125 45 14 C45.5878125 13.2575 45.5878125 13.2575 46.1875 12.5 C48 11 48 11 50.5625 10.6875 C53 11 53 11 55 13 C55.125 15.625 55.125 15.625 55 18 C52.69 18 50.38 18 48 18 C48.66 18.99 49.32 19.98 50 21 C53.08365871 21.2502157 53.08365871 21.2502157 56 21 C56.433125 19.081875 56.433125 19.081875 56.875 17.125 C57.54102483 14.17546145 57.80202597 13.19797403 60 11 C63.625 11.375 63.625 11.375 67 12 C67.495 13.98 67.495 13.98 68 16 C66.515 16.495 66.515 16.495 65 17 C64.505 15.515 64.505 15.515 64 14 C63.34 14 62.68 14 62 14 C61.67 16.31 61.34 18.62 61 21 C62.98 21 64.96 21 67 21 C67.39832031 20.16855469 67.39832031 20.16855469 67.8046875 19.3203125 C68.15789062 18.59585938 68.51109375 17.87140625 68.875 17.125 C69.22304687 16.40570313 69.57109375 15.68640625 69.9296875 14.9453125 C71 13 71 13 73 11 C76 11.1875 76 11.1875 79 12 C81.4294516 15.6441774 81.16179575 17.71241272 81 22 C81.66 22 82.32 22 83 22 C83.18175781 20.71802734 83.18175781 20.71802734 83.3671875 19.41015625 C83.53476563 18.30542969 83.70234375 17.20070313 83.875 16.0625 C84.03742188 14.96035156 84.19984375 13.85820313 84.3671875 12.72265625 C84.57601562 11.82417969 84.78484375 10.92570312 85 10 C85.66 9.67 86.32 9.34 87 9 C87 9.66 87 10.32 87 11 C88.65 11 90.3 11 92 11 C92.495 15.95 92.495 15.95 93 21 C93.66 19.68 94.32 18.36 95 17 C95.99 16.505 95.99 16.505 97 16 C96.25 21.75 96.25 21.75 94 24 C93.01 24 92.02 24 91 24 C91.495 28.455 91.495 28.455 92 33 C89.36 33.33 86.72 33.66 84 34 C84.33 31.69 84.66 29.38 85 27 C84.34 27 83.68 27 83 27 C83 28.98 83 30.96 83 33 C82.0925 32.979375 81.185 32.95875 80.25 32.9375 C77.20895029 32.86195366 77.20895029 32.86195366 75.1875 33.5 C72.33739256 34.15145313 69.67009833 34.0942402 66.75 34.0625 C65.13351563 34.04896484 65.13351563 34.04896484 63.484375 34.03515625 C62.66453125 34.02355469 61.8446875 34.01195312 61 34 C61 33.01 61 32.02 61 31 C62.98 30.67 64.96 30.34 67 30 C67 28.02 67 26.04 67 24 C66.0925 24.04125 65.185 24.0825 64.25 24.125 C61.1217954 24.00468444 59.61385994 23.6085292 57 22 C56.01 22.66 55.02 23.32 54 24 C53.01 24 52.02 24 51 24 C51 25.32 51 26.64 51 28 C50.34 28 49.68 28 49 28 C49 28.66 49 29.32 49 30 C46.69 30 44.38 30 42 30 C42 29.01 42 28.02 42 27 C41.34 27 40.68 27 40 27 C40 27.66 40 28.32 40 29 C39.01 29 38.02 29 37 29 C37 31.64 37 34.28 37 37 C28.75 37 20.5 37 12 37 C12 39.64 12 42.28 12 45 C11.34 45 10.68 45 10 45 C8.71164717 42.97479977 7.62314108 40.8768414 6.51171875 38.75 C6.01285156 38.1725 5.51398437 37.595 5 37 C3.35 37 1.7 37 0 37 C0 31.06 0 25.12 0 19 C-0.99 18.67 -1.98 18.34 -3 18 C-2.505 16.515 -2.505 16.515 -2 15 C-1.34 15 -0.68 15 0 15 C0 10.05 0 5.1 0 0 Z M69 26 C70 30 70 30 70 30 Z " fill="#FBFAF5" transform="translate(13,39)"/>
<path d="M0 0 C1.423125 -0.061875 2.84625 -0.12375 4.3125 -0.1875 C5.51326172 -0.23970703 5.51326172 -0.23970703 6.73828125 -0.29296875 C9 0 9 0 10.75 1.375 C12.17540777 3.2280301 12.60573709 4.71327513 13 7 C13.391875 6.505 13.78375 6.01 14.1875 5.5 C16 4 16 4 18.5625 3.6875 C21 4 21 4 23 6 C23.125 8.625 23.125 8.625 23 11 C20.69 11 18.38 11 16 11 C16.99 12.485 16.99 12.485 18 14 C21.08365871 14.2502157 21.08365871 14.2502157 24 14 C24.28875 12.72125 24.5775 11.4425 24.875 10.125 C25.54102483 7.17546145 25.80202597 6.19797403 28 4 C31.625 4.375 31.625 4.375 35 5 C35.495 6.98 35.495 6.98 36 9 C35.01 9.33 34.02 9.66 33 10 C32.505 8.515 32.505 8.515 32 7 C31.34 7 30.68 7 30 7 C29.67 9.31 29.34 11.62 29 14 C30.98 14 32.96 14 35 14 C35.26554687 13.44570313 35.53109375 12.89140625 35.8046875 12.3203125 C36.15789062 11.59585938 36.51109375 10.87140625 36.875 10.125 C37.22304687 9.40570313 37.57109375 8.68640625 37.9296875 7.9453125 C39 6 39 6 41 4 C44 4.1875 44 4.1875 47 5 C49.4294516 8.6441774 49.16179575 10.71241272 49 15 C49.66 15 50.32 15 51 15 C51.18175781 13.71802734 51.18175781 13.71802734 51.3671875 12.41015625 C51.53476563 11.30542969 51.70234375 10.20070313 51.875 9.0625 C52.03742188 7.96035156 52.19984375 6.85820313 52.3671875 5.72265625 C52.57601562 4.82417969 52.78484375 3.92570312 53 3 C53.66 2.67 54.32 2.34 55 2 C55 2.66 55 3.32 55 4 C56.65 4 58.3 4 60 4 C60.495 8.95 60.495 8.95 61 14 C61.66 12.68 62.32 11.36 63 10 C63.66 9.67 64.32 9.34 65 9 C64.25 14.75 64.25 14.75 62 17 C61.01 17 60.02 17 59 17 C59.495 21.455 59.495 21.455 60 26 C56.04 26.495 56.04 26.495 52 27 C52.33 24.69 52.66 22.38 53 20 C52.34 20 51.68 20 51 20 C51 21.98 51 23.96 51 26 C49.63875 25.9690625 49.63875 25.9690625 48.25 25.9375 C45.20895029 25.86195366 45.20895029 25.86195366 43.1875 26.5 C40.33739256 27.15145313 37.67009833 27.0942402 34.75 27.0625 C33.13351563 27.04896484 33.13351563 27.04896484 31.484375 27.03515625 C30.66453125 27.02355469 29.8446875 27.01195313 29 27 C29 26.01 29 25.02 29 24 C30.98 23.67 32.96 23.34 35 23 C35 21.02 35 19.04 35 17 C34.0925 17.04125 33.185 17.0825 32.25 17.125 C29.1217954 17.00468444 27.61385994 16.6085292 25 15 C24.01 15.66 23.02 16.32 22 17 C15.83014537 16.66947207 15.83014537 16.66947207 13.0625 14.4375 C12.711875 13.963125 12.36125 13.48875 12 13 C11.505 13.66 11.01 14.32 10.5 15 C8 17 8 17 0 17 C0 11.39 0 5.78 0 0 Z M37 19 C38 23 38 23 38 23 Z " fill="#F2E7D6" transform="translate(45,46)"/>
<path d="M0 0 C12.21 0 24.42 0 37 0 C37 1.65 37 3.3 37 5 C36.505 3.02 36.505 3.02 36 1 C30.06 1 24.12 1 18 1 C17.67 2.98 17.34 4.96 17 7 C15.60302734 8.80859375 15.60302734 8.80859375 13.9609375 10.4375 C9.34270031 16.23445044 10.35519606 22.93667132 10.625 30 C10.6551495 31.36061781 10.68251652 32.72130026 10.70703125 34.08203125 C10.77740695 37.38968925 10.87583387 40.69399708 11 44 C8.02868228 41.89229698 6.40715316 40.40062014 5 37 C3.35 37 1.7 37 0 37 C0 31.06 0 25.12 0 19 C-0.99 18.67 -1.98 18.34 -3 18 C-2.505 16.515 -2.505 16.515 -2 15 C-1.34 15 -0.68 15 0 15 C0 10.05 0 5.1 0 0 Z " fill="#F5E7C2" transform="translate(13,39)"/>
<path d="M0 0 C1.423125 -0.061875 2.84625 -0.12375 4.3125 -0.1875 C5.51326172 -0.23970703 5.51326172 -0.23970703 6.73828125 -0.29296875 C9 0 9 0 10.75 1.375 C12.17540777 3.2280301 12.60573709 4.71327513 13 7 C13.391875 6.505 13.78375 6.01 14.1875 5.5 C16 4 16 4 18.5625 3.6875 C21 4 21 4 23 6 C23.125 8.625 23.125 8.625 23 11 C20.69 11 18.38 11 16 11 C16.99 12.485 16.99 12.485 18 14 C21.08365871 14.2502157 21.08365871 14.2502157 24 14 C24.28875 12.72125 24.5775 11.4425 24.875 10.125 C25.54102483 7.17546145 25.80202597 6.19797403 28 4 C31.625 4.375 31.625 4.375 35 5 C35.495 6.98 35.495 6.98 36 9 C35.01 9.33 34.02 9.66 33 10 C32.505 8.515 32.505 8.515 32 7 C31.34 7 30.68 7 30 7 C29.7525 8.11375 29.505 9.2275 29.25 10.375 C28 14 28 14 26.3125 15.375 C23.10202349 16.24269635 20.34466611 16.88264329 17 17 C14.0625 15.0625 14.0625 15.0625 12 13 C11.505 13.66 11.01 14.32 10.5 15 C8 17 8 17 0 17 C0 11.39 0 5.78 0 0 Z " fill="#B4E0F0" transform="translate(45,46)"/>
<path d="M0 0 C11.55 0 23.1 0 35 0 C35 1.65 35 3.3 35 5 C34.505 3.02 34.505 3.02 34 1 C28.06 1 22.12 1 16 1 C15.67 2.98 15.34 4.96 15 7 C13.60302734 8.80859375 13.60302734 8.80859375 11.9609375 10.4375 C7.34270031 16.23445044 8.35519606 22.93667132 8.625 30 C8.6551495 31.36061781 8.68251652 32.72130026 8.70703125 34.08203125 C8.77740695 37.38968925 8.87583387 40.69399708 9 44 C7.68 43.01 6.36 42.02 5 41 C5.33 40.01 5.66 39.02 6 38 C6.33 38.66 6.66 39.32 7 40 C7.05790353 36.70840684 7.09356261 33.41694397 7.125 30.125 C7.14175781 29.18785156 7.15851562 28.25070313 7.17578125 27.28515625 C7.18222656 26.38925781 7.18867188 25.49335937 7.1953125 24.5703125 C7.21102295 23.32918701 7.21102295 23.32918701 7.22705078 22.06298828 C7.19302257 19.77601843 7.19302257 19.77601843 5 18 C5.33 17.34 5.66 16.68 6 16 C4.02 16 2.04 16 0 16 C0.7425 15.443125 1.485 14.88625 2.25 14.3125 C6.92383826 10.38222692 9.35351593 6.89990124 11 1 C10.34 1 9.68 1 9 1 C8.71125 2.134375 8.4225 3.26875 8.125 4.4375 C7.75375 5.613125 7.3825 6.78875 7 8 C6.01 8.495 6.01 8.495 5 9 C5.66 6.36 6.32 3.72 7 1 C4.69 1 2.38 1 0 1 C0 0.67 0 0.34 0 0 Z " fill="#E9CE91" transform="translate(15,39)"/>
<path d="M0 0 C0 6.93 0 13.86 0 21 C-0.66 20.67 -1.32 20.34 -2 20 C-2 19.34 -2 18.68 -2 18 C-4.64 17.67 -7.28 17.34 -10 17 C-9.505 8.09 -9.505 8.09 -9 -1 C-4 -2 -4 -2 0 0 Z " fill="#FBF5E2" transform="translate(23,59)"/>
<path d="M0 0 C0.33 0.66 0.66 1.32 1 2 C2.65 2 4.3 2 6 2 C6.33 5.3 6.66 8.6 7 12 C7.66 10.68 8.32 9.36 9 8 C9.66 7.67 10.32 7.34 11 7 C10.25 12.75 10.25 12.75 8 15 C4.46428571 14.46428571 4.46428571 14.46428571 3 13 C2.92820036 11.48071962 2.91607993 9.95832518 2.9375 8.4375 C2.94652344 7.61121094 2.95554687 6.78492188 2.96484375 5.93359375 C2.97644531 5.29550781 2.98804687 4.65742187 3 4 C2.01 4 1.02 4 0 4 C-0.12375 5.258125 -0.2475 6.51625 -0.375 7.8125 C-0.69868059 11.10325263 -1.06604999 12.09907498 -3 15 C-5.3125 15.36328125 -5.3125 15.36328125 -8 15.3125 C-8.886875 15.30863281 -9.77375 15.30476563 -10.6875 15.30078125 C-13 15 -13 15 -15 13 C-14.67 12.01 -14.34 11.02 -14 10 C-14 10.66 -14 11.32 -14 12 C-13.34 12 -12.68 12 -12 12 C-12 12.66 -12 13.32 -12 14 C-11.34 13.67 -10.68 13.34 -10 13 C-10 10.03 -10 7.06 -10 4 C-10.66 4 -11.32 4 -12 4 C-12.66 5.32 -13.32 6.64 -14 8 C-14.66 8 -15.32 8 -16 8 C-15.42655063 5.13275314 -15.1385485 4.1385485 -13 2 C-10 2.1875 -10 2.1875 -7 3 C-4.5705484 6.6441774 -4.83820425 8.71241272 -5 13 C-4.34 13 -3.68 13 -3 13 C-2.86722656 12.14535156 -2.73445313 11.29070313 -2.59765625 10.41015625 C-2.42105469 9.30542969 -2.24445313 8.20070313 -2.0625 7.0625 C-1.88847656 5.96035156 -1.71445313 4.85820313 -1.53515625 3.72265625 C-1 1 -1 1 0 0 Z " fill="#95DCF1" transform="translate(99,48)"/>
<path d="M0 0 C0.99 0 1.98 0 3 0 C3.07347656 0.87011719 3.07347656 0.87011719 3.1484375 1.7578125 C3.59973143 6.47305597 4.46644956 10.50158539 6 15 C6.125 17.875 6.125 17.875 6 20 C2.04 20.495 2.04 20.495 -2 21 C-1.67 18.69 -1.34 16.38 -1 14 C-1.66 14 -2.32 14 -3 14 C-3 13.34 -3 12.68 -3 12 C-3.99 11.67 -4.98 11.34 -6 11 C-5.01 10.67 -4.02 10.34 -3 10 C-1.97299556 7.67108904 -1.97299556 7.67108904 -1.3125 4.9375 C-1.06113281 4.01839844 -0.80976562 3.09929688 -0.55078125 2.15234375 C-0.36902344 1.44207031 -0.18726562 0.73179688 0 0 Z " fill="#FAFAF8" transform="translate(99,52)"/>
<path d="M0 0 C0.5775 0.165 1.155 0.33 1.75 0.5 C4.26664369 1.14462031 4.26664369 1.14462031 8 1 C7.814375 1.5775 7.62875 2.155 7.4375 2.75 C6.7761831 5.30393357 6.7761831 5.30393357 8 9 C2.06 9 -3.88 9 -10 9 C-10 8.01 -10 7.02 -10 6 C-6.7 5.67 -3.4 5.34 0 5 C0 3.35 0 1.7 0 0 Z " fill="#E6E5D1" transform="translate(65,64)"/>
<path d="M0 0 C0.78375 0.639375 1.5675 1.27875 2.375 1.9375 C4.79539281 3.98142313 4.79539281 3.98142313 7 5 C7 6.32 7 7.64 7 9 C6.34 9 5.68 9 5 9 C5 9.66 5 10.32 5 11 C2.69 11 0.38 11 -2 11 C-2 10.01 -2 9.02 -2 8 C-2.66 8 -3.32 8 -4 8 C-4 8.66 -4 9.32 -4 10 C-4.99 10 -5.98 10 -7 10 C-7 8.68 -7 7.36 -7 6 C-6.01 6 -5.02 6 -4 6 C-4 5.34 -4 4.68 -4 4 C-2.70766393 2.62689293 -1.37562854 1.28965176 0 0 Z " fill="#FAF6E2" transform="translate(57,58)"/>
<path d="M0 0 C3.625 0.375 3.625 0.375 7 1 C7.33 2.32 7.66 3.64 8 5 C7.01 5.33 6.02 5.66 5 6 C4.67 5.01 4.34 4.02 4 3 C3.34 3 2.68 3 2 3 C1.7525 4.11375 1.505 5.2275 1.25 6.375 C0 10 0 10 -1.6875 11.375 C-9.86106195 13.5840708 -9.86106195 13.5840708 -13.4375 11.75 C-15 10 -15 10 -15 7 C-14.01 7 -13.02 7 -12 7 C-11.01 8.485 -11.01 8.485 -10 10 C-6.91634129 10.2502157 -6.91634129 10.2502157 -4 10 C-3.71125 8.72125 -3.4225 7.4425 -3.125 6.125 C-2.45897517 3.17546145 -2.19797403 2.19797403 0 0 Z " fill="#8EDAF3" transform="translate(73,50)"/>
<path d="M0 0 C0.99 0.33 1.98 0.66 3 1 C3 3.97 3 6.94 3 10 C2.01 10.33 1.02 10.66 0 11 C0 10.34 0 9.68 0 9 C-3.37462715 9.54723683 -5.08235 10.0549 -8 12 C-11.625 11.75 -11.625 11.75 -15 11 C-15.33 10.34 -15.66 9.68 -16 9 C-15.34 9 -14.68 9 -14 9 C-14 7.35 -14 5.7 -14 4 C-13.67 4 -13.34 4 -13 4 C-13 5.65 -13 7.3 -13 9 C-11.02 9 -9.04 9 -7 9 C-6.34 7.35 -5.68 5.7 -5 4 C-4.01 4 -3.02 4 -2 4 C-1.34 2.68 -0.68 1.36 0 0 Z " fill="#9ADDF2" transform="translate(87,51)"/>
<path d="M0 0 C4 1 4 1 5 2 C5.09854655 3.64340867 5.12972411 5.2911461 5.125 6.9375 C5.12757812 7.83339844 5.13015625 8.72929688 5.1328125 9.65234375 C5 12 5 12 4 14 C2.68 14 1.36 14 0 14 C0 9.38 0 4.76 0 0 Z " fill="#FAFDFE" transform="translate(48,47)"/>
<path d="M0 0 C0.33 0.66 0.66 1.32 1 2 C2.65 2 4.3 2 6 2 C6.33 5.3 6.66 8.6 7 12 C7.66 10.68 8.32 9.36 9 8 C9.66 7.67 10.32 7.34 11 7 C10.25 12.75 10.25 12.75 8 15 C4.46428571 14.46428571 4.46428571 14.46428571 3 13 C2.92820036 11.48071962 2.91607993 9.95832518 2.9375 8.4375 C2.94652344 7.61121094 2.95554687 6.78492188 2.96484375 5.93359375 C2.97644531 5.29550781 2.98804687 4.65742187 3 4 C1.68 4 0.36 4 -1 4 C-0.67 2.68 -0.34 1.36 0 0 Z " fill="#8DD7F0" transform="translate(99,48)"/>
<path d="M0 0 C0.33 0 0.66 0 1 0 C1 4.62 1 9.24 1 14 C2.32 14 3.64 14 5 14 C5.33 12.35 5.66 10.7 6 9 C6.99 9 7.98 9 9 9 C9.1875 11.375 9.1875 11.375 9 14 C5.91111478 16.05925681 5.29064073 16.2390374 1.8125 16.125 C0.554375 16.08375 -0.70375 16.0425 -2 16 C-2 13.69 -2 11.38 -2 9 C-1.34 9 -0.68 9 0 9 C0 6.03 0 3.06 0 0 Z " fill="#89D8F1" transform="translate(47,47)"/>
<path d="M0 0 C6.8359375 -0.1953125 6.8359375 -0.1953125 9 0 C11 2 11 2 11.1953125 3.9453125 C11.13020833 5.96354167 11.06510417 7.98177083 11 10 C10.01 10 9.02 10 8 10 C7.67 7.69 7.34 5.38 7 3 C4.525 2.01 4.525 2.01 2 1 C2 3.97 2 6.94 2 10 C1.34 10 0.68 10 0 10 C0 6.7 0 3.4 0 0 Z " fill="#14BAEC" transform="translate(45,46)"/>
<path d="M0 0 C7.26 0 14.52 0 22 0 C21.67 0.66 21.34 1.32 21 2 C14.00609057 3.14654253 7.07251199 3.10770323 0 3 C0 2.01 0 1.02 0 0 Z " fill="#94DBF1" transform="translate(74,70)"/>
<path d="M0 0 C2.31 0 4.62 0 7 0 C6.55520961 5.04095775 4.33845847 7.41115715 1 11 C0.67 11 0.34 11 0 11 C0 7.37 0 3.74 0 0 Z " fill="#FEFDFC" transform="translate(15,41)"/>
<path d="M0 0 C2.97 0.33 5.94 0.66 9 1 C9 1.33 9 1.66 9 2 C6.69 2 4.38 2 2 2 C2.33 5.3 2.66 8.6 3 12 C3.99 11.01 4.98 10.02 6 9 C6.66 9.33 7.32 9.66 8 10 C6.25 12 6.25 12 4 14 C2.68 14 1.36 14 0 14 C0 9.38 0 4.76 0 0 Z " fill="#FAF0CB" transform="translate(13,39)"/>
<path d="M0 0 C3 1 3 1 4 2 C4.66 1.34 5.32 0.68 6 0 C6.33 2.31 6.66 4.62 7 7 C4.36 7.33 1.72 7.66 -1 8 C-0.67 5.36 -0.34 2.72 0 0 Z " fill="#C6DDD5" transform="translate(98,65)"/>
<path d="M0 0 C1.9375 0.625 1.9375 0.625 4 2 C4.75 5.125 4.75 5.125 5 8 C2.69 8.33 0.38 8.66 -2 9 C-2.25 3.375 -2.25 3.375 0 0 Z " fill="#EBDCC4" transform="translate(82,60)"/>
<path d="M0 0 C0.66 0 1.32 0 2 0 C2.3125 2.6875 2.3125 2.6875 2 6 C-0.3125 8.6875 -0.3125 8.6875 -3 11 C-3.598125 11.598125 -4.19625 12.19625 -4.8125 12.8125 C-5.204375 13.204375 -5.59625 13.59625 -6 14 C-6.66 13.67 -7.32 13.34 -8 13 C-7.4225 12.34 -6.845 11.68 -6.25 11 C-3.64258671 7.52344894 -1.83069502 3.92430901 0 0 Z " fill="#F5EBD9" transform="translate(28,40)"/>
<path d="M0 0 C4.29 0 8.58 0 13 0 C13.33 0.99 13.66 1.98 14 3 C9.38 3 4.76 3 0 3 C0 2.01 0 1.02 0 0 Z " fill="#A8E0F3" transform="translate(55,70)"/>
<path d="M0 0 C0.99 0.33 1.98 0.66 3 1 C3 3.97 3 6.94 3 10 C2.01 10.33 1.02 10.66 0 11 C-1.62651522 7.74696956 -1.11453156 4.60774398 -1 1 C-0.67 0.67 -0.34 0.34 0 0 Z " fill="#EDF8FC" transform="translate(87,51)"/>
<path d="M0 0 C2.33944736 0.28730055 4.6739143 0.61936779 7 1 C7.33 2.32 7.66 3.64 8 5 C7.01 5.33 6.02 5.66 5 6 C4.67 5.01 4.34 4.02 4 3 C3.34 3 2.68 3 2 3 C1.01 4.485 1.01 4.485 0 6 C-0.66 6 -1.32 6 -2 6 C-1.125 1.125 -1.125 1.125 0 0 Z " fill="#37BCE4" transform="translate(73,50)"/>
<path d="M0 0 C2.5 0.25 2.5 0.25 4.5 2.25 C4.125 4.375 4.125 4.375 3.5 6.25 C2.84 4.93 2.18 3.61 1.5 2.25 C0.51 2.58 -0.48 2.91 -1.5 3.25 C-1.83 4.24 -2.16 5.23 -2.5 6.25 C-3.49 6.25 -4.48 6.25 -5.5 6.25 C-4.75451591 2.52257953 -4.15390859 0.41539086 0 0 Z " fill="#2CB7E2" transform="translate(63.5,49.75)"/>
<path d="M0 0 C3.125 0.375 3.125 0.375 6 1 C6.33 2.98 6.66 4.96 7 7 C6.01 7 5.02 7 4 7 C3.67 5.35 3.34 3.7 3 2 C2.34 2 1.68 2 1 2 C0.34 3.32 -0.32 4.64 -1 6 C-1.66 6 -2.32 6 -3 6 C-2.42655063 3.13275314 -2.1385485 2.1385485 0 0 Z " fill="#2EB6E0" transform="translate(86,50)"/>
<path d="M0 0 C0.33 0.66 0.66 1.32 1 2 C2.65 2 4.3 2 6 2 C6 3.98 6 5.96 6 8 C5.01 8 4.02 8 3 8 C3 6.68 3 5.36 3 4 C1.68 4 0.36 4 -1 4 C-0.67 2.68 -0.34 1.36 0 0 Z " fill="#2ABCE5" transform="translate(99,48)"/>
<path d="M0 0 C0.99 0.33 1.98 0.66 3 1 C4.66362417 1.34820041 6.32995171 1.68404492 8 2 C8 2.66 8 3.32 8 4 C5.03 4 2.06 4 -1 4 C-0.67 2.68 -0.34 1.36 0 0 Z " fill="#FCF8E1" transform="translate(13,53)"/>
<path d="M0 0 C2.64 0 5.28 0 8 0 C8.33 0.99 8.66 1.98 9 3 C5.7 2.67 2.4 2.34 -1 2 C-0.67 1.34 -0.34 0.68 0 0 Z " fill="#87D7F0" transform="translate(60,70)"/>
</svg>
