<?xml version="1.0"?><svg version="1.2" baseProfile="tiny-ps" viewBox="0 0 250 250" xmlns="http://www.w3.org/2000/svg" xmlns:xlink="http://www.w3.org/1999/xlink"><title>Decor Drapes Instyle</title><g><g fill="#fcfffd" transform="matrix(.1 0 0 -.1 0 250)"><path d="M0 1250V0h2500v2500H0V1250z"/></g><g fill="#fdf6d4" transform="matrix(.1 0 0 -.1 0 250)"><path d="m588 1733-408-3v-350h-37l-18-20-18-20 11-25 11-24 26-7 25-6V879l63 3 62 2 30-61 30-62 35-38 35-37 3 97 3 97h589v140h-40v-99l-266-3c-146-2-270-1-275 2l-8 6-4 174-3 175-18 44-17 45 29 27c75 70 150 191 167 267l7 32 129 1c71 0 157 1 192 2l62 1 3-47 3-47h39v128l-16 6c-9 3-16 5-17 4-1-2-185-4-409-5zm-206-68c-2-16-14-54-28-84l-24-54-46-54c-25-29-50-53-55-53h-9v267l7 7 7 7 75-3 76-3-3-30zm86-12c-23-84-92-189-161-244-54-43-58-29-7 28 53 60 93 129 115 199l17 54h46l-10-37zm92 19c0-10-15-49-34-87l-34-70-47-53c-41-45-105-93-105-77 0 2 13 17 28 32 55 55 132 178 132 213 0 5 4 20 10 34l10 26h40v-18zm-222-332h33l-6-10-6-10H150v19l58 4c31 2 66 2 77 0 11-1 35-3 53-3zm-26-67 18-16V920h-10c-5 0-14 8-19 19l-10 19-3 166c-2 91-1 166 1 166 3 0 13-7 23-17zm79 0 14-16 3-228 3-227-11-7-10-6-15 35-15 35v431h9c5 0 15-7 22-17zm-146-5c2-7 5-88 7-181l3-167h-35v360h10c6 0 13-6 15-12zm662 305c-4-3-7-94-7-201v-194l101 4 101 3 29 33 29 32v256l-27 26c-16 15-41 32-56 37l-28 11h-68c-37 0-71-3-74-7zm141-53 32-20 2-77c2-43 2-98 2-122v-44l-28-23-27-24h-59v330h23c12 0 37-9 55-20zm1058-27c-3-10-10-63-16-118l-10-100-18-24c-10-14-24-27-30-29l-12-4-10 27c-5 14-10 50-10 78v52l-18 35-19 34-36 19-36 19-31-7-30-7-30-29-29-30-6-37c-3-20-10-54-16-74l-9-37-27-20-26-21h-76l-28 24-28 24 1 51v51l14 25 14 26 25-3 26-3 11-35 11-35 27-3 26-3v79l-31 26-31 26h-83l-31-19-31-19-16-35-17-35v-74l-34-34-34-34h-74l-29 29c-36 36-36 45-4 59l26 12h109v89l-23 26-23 27-45 5-46 5-36-17-35-17-16-33-16-33v-89l23-34 22-34 35-17 35-18h33c18 0 48 6 66 14l34 14 23 31 22 31 18-29 17-28 41-16c50-21 91-21 134-3l33 13 17 27 18 26 39-41 39-41 48 6c62 8 71 8 115 0l37-6 24 26 24 26 13 44c6 24 15 68 18 97l7 54 33 3 32 3v-182l15-28c22-44 71-55 112-26l22 16 21 65c24 79 24 84 5 84h-15v-17c0-32-21-92-37-108l-16-16-16 16-16 16-5 107-5 107-44 3-43 3-5 20-5 19h-47l-5-17zm-190-89 15-36-11-33-11-34 6-33 6-34-21-19-21-19-21 22-22 22-4 63-4 63 15 37 16 37h42l15-36zm-568 4c7-7 12-22 12-34v-22l-27-4c-16-3-37-9-47-13l-19-8 6 33c12 56 46 77 75 48zm-315-265-13-5v-87l10-6 11-7 14 12 13 11 7-11c13-21 20-9 22 36l2 45-25 10c-14 5-26 9-27 8-1 0-8-3-14-6zm240 0-13-5v-98h10c6 0 13 7 16 15s14 17 24 20l19 6 6 21 7 20-9 8c-12 11-46 19-60 13zm200 0-13-5v-18c0-10 5-22 11-26l11-6-13-8-13-8 13-16c17-20 45-21 61-1l12 15-7 17c-5 10-7 24-6 32 4 23-27 36-56 24zm227-47v-56h31l-3 52-3 51-12 5-13 4v-56zm67 47c-4-3-7-28-7-55v-48h14c8 0 18 5 21 10l7 11 14-12 14-11 15 6 15 5v90l-10 6-11 7-15-13-15-12-11 11c-14 14-22 15-31 5zm122-9-13-16 12-19 12-19h-21l11-21 11-20 27 3 27 3 1 45 2 45-12 7c-18 12-43 9-57-8zm101 1c0-8 5-15 10-15h10v-69l11-7 11-7 9 14c5 8 9 26 9 41v26l12 4 12 4-8 12-7 12h-69v-15zm105 5-6-9 16-30c8-17 15-37 15-46v-15h28l7 30c4 16 11 32 16 35 5 4 9 15 9 26v19h-13c-7 0-18-5-24-11l-11-11-6 11c-9 14-23 14-31 1zm122 3c-4-3-7-28-7-55v-48h60v14c0 8-7 17-16 20l-16 6 5 21c9 34-8 61-26 42zm90 1c-4-4-7-29-7-56v-48h65l-1 53v52l-25 3c-14 2-28 0-32-4zm-1407-49v-46l16-6 16-6 27 9 26 9 3 18c2 10 1 29-2 43l-6 24h-80v-45zm60-1v-16l-12 4c-6 2-14 10-16 16l-4 12h32v-16zm187 1-16-46 34 7 35 6v-21l14 5 14 5-8 27c-4 15-11 35-15 45l-7 17h-34l-17-45zm215-2 3-48 32-3 33-3-2 28c-1 15-6 34-11 41l-9 12h11c6 0 11 5 11 10v10h-71l3-47zm-27-84-6-8-14 6-15 5v-24l-12 9c-7 5-23 10-35 11l-23 1v-24c0-13 4-26 9-30l9-5 5 17 5 18 1-17c1-20 21-25 21-6v12l12-12c17-17 26-15 31 6l5 17 1-17 1-18h17c9 0 25 8 35 17l19 17-3-14-3-15h40l2 27 2 26-14 6-14 5-16-15-15-15v9c0 5-9 12-20 15l-20 5-5-9zm157-1c-7-7-12-22-12-35v-23l24 2 24 2-9 17-9 17 11 4 11 4-14 12-14 12-12-12zm173 1-7-10-15 5-16 6-13-11-14-11v22h-30v-57l35 1 35 1v28l18-16c23-21 31-21 54 0l19 17-3-14-3-15h40l1 25 2 25-11 7-11 7-16-9-16-9-15 10c-19 12-26 11-34-2zm25-29c0-5-5-10-11-10h-10l6 10c3 6 8 10 11 10 2 0 4-4 4-10zm97 22-17-18 13-16c6-9 22-19 35-23l23-7-2 9c-1 4-1 14 0 22l1 15 14-19 13-18 17 6 16 6v51h-9c-5 0-12-10-14-22l-4-23-2 23-1 22h-10c-5 0-10-5-10-10v-10l-23 15-24 15-16-18zm33-22c0-5-4-10-10-10-5 0-10 5-10 10 0 6 5 10 10 10 6 0 10-4 10-10zm113 33-23-4v-59h20v50h20v-50h20v18c0 10 3 22 7 25l6 7 11-23 12-22h37l11 18 11 18-19 14-19 14-16-9-17-9-15 10c-7 5-16 8-19 7-3 0-15-3-27-5zm97-33c0-5-4-10-10-10-5 0-10 5-10 10 0 6 5 10 10 10 6 0 10-4 10-10zm141 32-11-4v-58h45l-15 10-15 10h27l-6 15-5 15h29v-50h20v50h23l-6 7c-8 7-69 11-86 5zm-1041-32v-30h39l10 18 10 17 1-17v-18h27l-5 28-4 29-39 1-39 2v-30zm960-1v-29h10c6 0 10 5 10 12v12l12-12c19-19 28-14 28 16v29l-30 1-30 1v-30z"/></g><g fill="#f0deb2" transform="matrix(.1 0 0 -.1 0 250)"><path d="m233 1723-33-4 2-52 1-52 4 43 4 42h95c52 0 94-1 94-2-1-23-38-115-65-164-20-35-33-64-29-64 3 0 0-8-7-17l-14-18 17 14 18 13-6 9-5 9h10c18 0 64 79 88 149l22 66 27 3 27 4-7-33c-10-50-52-137-94-191-20-27-37-52-37-56s-4-14-8-22c-5-8 14 9 41 37l50 53 36 71c19 39 38 86 42 105l6 34h58l-6-27c-3-16-22-61-41-102l-36-75-68-68-68-68h-31v14c0 8-5 18-12 22l-11 7 7-11 7-12h-10c-6 0-11-7-11-15v-15h79l7-11 7-11-9-7c-5-3-10-12-12-19l-2-13 8 5 9 5 19-22 19-22-1-60-2-60 8 70 9 70-13 20c-7 11-15 32-18 48l-5 27 38 31 38 30 45 67 44 67 23 68 24 67h395v-102l13 5 12 4v118l-380 1c-209 0-395-1-412-3zm674-150c-4-3-7-94-7-201v-194l101 4 101 3 29 33 29 32v256l-27 26c-16 15-41 32-56 37l-28 11h-68c-37 0-71-3-74-7zm141-53 32-20 2-77c2-43 2-98 2-122v-44l-28-23-27-24h-59v330h23c12 0 37-9 55-20zm1058-27c-3-10-10-63-16-118l-10-100-18-24c-10-14-24-27-30-29l-12-4-10 27c-5 14-10 50-10 78v52l-18 35-19 34-36 19-36 19-31-7-30-7-30-29-29-30-6-37c-3-20-10-54-16-74l-9-37-27-20-26-21h-76l-28 24-28 24 1 51v51l14 25 14 26 25-3 26-3 11-35 11-35 27-3 26-3v79l-31 26-31 26h-83l-31-19-31-19-16-35-17-35v-74l-34-34-34-34h-74l-29 29c-36 36-36 45-4 59l26 12h109v89l-23 26-23 27-45 5-46 5-36-17-35-17-16-33-16-33v-89l23-34 22-34 35-17 35-18h33c18 0 48 6 66 14l34 14 23 31 22 31 18-29 17-28 41-16c50-21 91-21 134-3l33 13 17 27 18 26 39-41 39-41 48 6c62 8 71 8 115 0l37-6 24 26 24 26 13 44c6 24 15 68 18 97l7 54 33 3 32 3v-182l15-28c22-44 71-55 112-26l22 16 21 65c24 79 24 84 5 84h-15v-17c0-32-21-92-37-108l-16-16-16 16-16 16-5 107-5 107-44 3-43 3-5 20-5 19h-47l-5-17zm-190-89 15-36-11-33-11-34 6-33 6-34-21-19-21-19-21 22-22 22-4 63-4 63 15 37 16 37h42l15-36zm-568 4c7-7 12-22 12-34v-22l-27-4c-16-3-37-9-47-13l-19-8 6 33c12 56 46 77 75 48zm-1158-40v-8l-32 2-33 3-3-27-3-27 18-9c22-12 120-19 129-9l7 7-54 1-54 1 25 8 25 8-38 1-39 1 4 13 5 12 46 5 46 5-7 11c-8 13-42 15-42 2zm138-75c7-3 16-2 19 1 4 3-2 6-13 5l-19-1 13-5zm-127-13c-9-17-13-63-18-216l-5-171 14-4c7-3 31-2 53 1l40 6-15 7c-8 3-24 7-35 9l-20 3-5 185c-3 102-7 183-9 180zm67-84c-5-43-8-117-8-164v-85l20-32c11-18 27-35 35-38l14-6 10-39 11-39 31-39c16-21 36-39 43-40l13-2-2 17c-1 9-4 23-8 31-3 8-8 38-10 65l-3 50-2-59-2-59-22 29-23 28-6 126-5 125-2-62-2-63h-9c-5 0-11-10-13-22l-3-23-20 30-20 29-5 161-5 160-7-79zm645-101-2-45h49v21l12-7 11-7-6 11-7 10-20-5-20-5v52h11c6 0 19-10 30-22l18-23 1 12c0 6-3 18-6 27l-6 16-9-6-9-5v21h-46l-1-45zm117 5v-41l24 18 24 18-14 3c-20 5-17 22 4 22h17l-15 10c-8 5-21 10-27 10h-13v-40zm230-6v-48l13 16c6 9 21 18 32 20l20 3v50l-32 3-33 3v-47zm50 16c0-5-6-10-14-10s-18 5-21 10l-6 10h41v-10zm60-15v-45h33l32 1-24 13-24 13 12 7 12 8-12 14-11 14h42v20h-60v-45zm97 39c-4-4-7-13-7-20v-13l28-15 27-16-20 3-20 2-5-10-5-10 33-3 32-3v51h-14c-8 0-18 5-22 12l-7 11 22-6 22-5-4 11-4 12-24 3c-14 2-28 0-32-4zm233-39v-45h30v90h-30v-45zm67 38c-16-15-4-83 14-83h9l1 23v22l16-22c8-13 22-23 29-23h14v90h-30v-17l-1-18-13 18c-14 18-28 22-39 10zm123-12c0-11 5-23 11-27l11-6-13-9-14-9 19-15 19-14 18 10c25 13 24 33-3 52l-23 16 24-6 24-6-5 14-5 14-31 3-32 3v-20zm100 9c0-5 5-10 10-10h10v-70h30v70h15c8 0 15 5 15 10v10h-80v-10zm115-20c8-16 15-36 15-45v-15h30v18c0 10 7 27 15 38 8 10 15 22 15 27 0 14-29 7-38-9l-9-16-6 16-6 16h-32l16-30zm105-14v-44l19-5c10-2 25-1 32 4l13 8-17 7-17 6v68h-30v-44zm90-1v-45h60v10c0 6-8 10-17 11h-18l17 12 16 11-16 13-17 12 18 1h17v20h-60v-45zm-1130 20 12-15 9 6c16 9 10 20-12 21l-21 2 12-14zm25-25-6-10h10c6 0 11 5 11 10 0 6-2 10-4 10-3 0-8-4-11-10zm5-31v-10l10 6c6 3 10 8 10 11 0 2-4 4-10 4-5 0-10-5-10-11zm-200-87v-49l-37-7c-21-3-128-6-238-6l-200-1 15-8 15-9 235-4 235-3v128l-12 5-13 4v-50zm335 37-6-8-14 6-15 5v-24l-12 9c-7 5-23 10-35 11l-23 1v-24c0-13 4-26 9-30l9-5 5 17 5 18 1-17c1-20 21-25 21-6v12l12-12c17-17 26-15 31 6l5 17 1-17 1-18h17c9 0 25 8 35 17l19 17-3-14-3-15h40l2 27 2 26-14 6-14 5-16-15-15-15v9c0 5-9 12-20 15l-20 5-5-9zm157-1c-7-7-12-22-12-35v-23l24 2 24 2-9 17-9 17 11 4 11 4-14 12-14 12-12-12zm173 1-7-10-15 5-16 6-13-11-14-11v22h-30v-57l35 1 35 1v28l18-16c23-21 31-21 54 0l19 17-3-14-3-15h40l1 25 2 25-11 7-11 7-16-9-16-9-15 10c-19 12-26 11-34-2zm25-29c0-5-5-10-11-10h-10l6 10c3 6 8 10 11 10 2 0 4-4 4-10zm97 22-17-18 13-16c6-9 22-19 35-23l23-7-2 9c-1 4-1 14 0 22l1 15 14-19 13-18 17 6 16 6v51h-9c-5 0-12-10-14-22l-4-23-2 23-1 22h-10c-5 0-10-5-10-10v-10l-23 15-24 15-16-18zm33-22c0-5-4-10-10-10-5 0-10 5-10 10 0 6 5 10 10 10 6 0 10-4 10-10zm113 33-23-4v-59h20v50h20v-50h20v18c0 10 3 22 7 25l6 7 11-23 12-22h37l11 18 11 18-19 14-19 14-16-9-17-9-15 10c-7 5-16 8-19 7-3 0-15-3-27-5zm97-33c0-5-4-10-10-10-5 0-10 5-10 10 0 6 5 10 10 10 6 0 10-4 10-10zm141 32-11-4v-58h45l-15 10-15 10h27l-6 15-5 15h29v-50h20v50h23l-6 7c-8 7-69 11-86 5zm-1041-32v-30h39l10 18 10 17 1-17v-18h27l-5 28-4 29-39 1-39 2v-30zm960 5c0-13 5-27 10-30l10-6v25l12-12c19-19 28-14 28 16v29l-30 1-30 1v-24zM432 800v-25l5 13c2 6 2 18 0 25l-5 12v-25z"/></g><g fill="#95d9ed" transform="matrix(.1 0 0 -.1 0 250)"><path d="M487 1719c-87-4-161-10-164-13-4-3 12-6 34-6h40l11-22 11-23v23l1 22h35c19 0 35-2 35-3 0-2-9-29-19-60l-20-57 8-4 8-5 11 23c6 13 16 43 22 65l11 41h59v-10c0-21-33-108-58-150-14-25-26-52-27-60v-15l-13 3-13 2 6-10c10-16 13-13 55 52l40 62 19 60 19 61 201 3 201 2v-90h20v101l-12 3c-28 9-373 12-521 5zm-91-72c3-10 9-15 12-12s0 11-7 18l-12 12 7-18zm-10-30c3-10 9-15 12-12s0 11-7 18l-12 12 7-18zm521-44c-4-3-7-94-7-201v-194l101 4 101 3 29 33 29 32v256l-27 26c-16 15-41 32-56 37l-28 11h-68c-37 0-71-3-74-7zm141-53 32-20 2-77c2-43 2-98 2-122v-44l-28-23-27-24h-59v330h23c12 0 37-9 55-20zm1058-27c-3-10-10-63-16-118l-10-100-18-24c-10-14-24-27-30-29l-12-4-10 27c-5 14-10 50-10 78v52l-18 35-19 34-36 19-36 19-31-7-30-7-30-29-29-30-6-37c-3-20-10-54-16-74l-9-37-27-20-26-21h-76l-28 24-28 24 1 51v51l14 25 14 26 25-3 26-3 11-35 11-35 27-3 26-3v79l-31 26-31 26h-83l-31-19-31-19-16-35-17-35v-74l-34-34-34-34h-74l-29 29c-36 36-36 45-4 59l26 12h109v89l-23 26-23 27-45 5-46 5-36-17-35-17-16-33-16-33v-89l23-34 22-34 35-17 35-18h33c18 0 48 6 66 14l34 14 23 31 22 31 18-29 17-28 41-16c50-21 91-21 134-3l33 13 17 27 18 26 39-41 39-41 48 6c62 8 71 8 115 0l37-6 24 26 24 26 13 44c6 24 15 68 18 97l7 54 33 3 32 3v-182l15-28c22-44 71-55 112-26l22 16 21 65c24 79 24 84 5 84h-15v-17c0-32-21-92-37-108l-16-16-16 16-16 16-5 107-5 107-44 3-43 3-5 20-5 19h-47l-5-17zm-190-89 15-36-11-33-11-34 6-33 6-34-21-19-21-19-21 22-22 22-4 63-4 63 15 37 16 37h42l15-36zm-568 4c7-7 12-22 12-34v-22l-27-4c-16-3-37-9-47-13l-19-8 6 33c12 56 46 77 75 48zm37-276c-5-4-11-19-12-34l-2-28h19v58l13 5 12 5-10 1c-5 0-14-3-20-7zm97-17v-30l5 18c2 9 2 23 0 30l-5 12v-30zm218-20v-45h20v90h-20v-45zm70 0v-45h20v28l1 27 17-27c9-16 22-28 29-28h13v90h-20v-27l-1-28-20 28c-11 15-25 27-30 27h-9v-45zm123 28-7-17 22-14c12-8 22-18 22-22v-8l-22 5-23 6 11-12 12-13 23 4 24 3 3 17 3 18-28 12-28 12 23 3c12 3 22 9 22 14v9h-51l-6-17zm110 3 17-13v-63h20v70h10c6 0 10 5 10 10v10h-37l-38-1 18-13zm97 9c0-3 10-25 21-48l22-42 13 45c15 49 11 63-9 35l-14-18-6 17c-6 15-27 23-27 11zm127-1c-4-4-7-25-7-46v-38h26l-4 38c-2 20-4 41-5 45l-2 8-8-7zm83-4v-10h19c11 0 23 5 26 10l6 10h-51v-10zm0-34c0-9 5-16 10-16 6 0 10 4 10 9 0 6-4 13-10 16l-10 6v-15zm-806-12c3-9 6-21 6-27v-11l11 11 12 12-6 15c-4 9-11 16-18 16h-11l6-16zm-504-118v-56l-152-1-153-1 25-8 25-8 138-1 137-1v119l-10 6-10 6v-55zm335 43-6-8-14 6-15 5v-24l-12 9c-7 5-23 10-35 11l-23 1v-24c0-13 4-26 9-30l9-5 5 17 5 18 1-17c1-20 21-25 21-6v12l12-12c17-17 26-15 31 6l5 17 1-17 1-18h17c9 0 25 8 35 17l19 17-3-14-3-15h40l2 27 2 26-14 6-14 5-16-15-15-15v9c0 5-9 12-20 15l-20 5-5-9zm157-1c-7-7-12-22-12-35v-23l24 2 24 2-9 17-9 17 11 4 11 4-14 12-14 12-12-12zm173 1-7-10-15 5-16 6-13-11-14-11v22h-30v-57l35 1 35 1v28l18-16c23-21 31-21 54 0l19 17-3-14-3-15h40l1 25 2 25-11 7-11 7-16-9-16-9-15 10c-19 12-26 11-34-2zm25-29c0-5-5-10-11-10h-10l6 10c3 6 8 10 11 10 2 0 4-4 4-10zm97 22-17-18 13-16c6-9 22-19 35-23l23-7-2 9c-1 4-1 14 0 22l1 15 14-19 13-18 17 6 16 6v51h-9c-5 0-12-10-14-22l-4-23-2 23-1 22h-10c-5 0-10-5-10-10v-10l-23 15-24 15-16-18zm33-22c0-5-4-10-10-10-5 0-10 5-10 10 0 6 5 10 10 10 6 0 10-4 10-10zm113 33-23-4v-59h20v50h20v-50h20v18c0 10 3 22 7 25l6 7 11-23 12-22h37l11 18 11 18-19 14-19 14-16-9-17-9-15 10c-7 5-16 8-19 7-3 0-15-3-27-5zm97-33c0-5-4-10-10-10-5 0-10 5-10 10 0 6 5 10 10 10 6 0 10-4 10-10zm141 32-11-4v-58h45l-15 10-15 10h27l-6 15-5 15h29v-50h20v50h23l-6 7c-8 7-69 11-86 5zM200 957c-5-63-2-71 20-56l15 9h-24l-3 53-3 52-5-58zm930 23v-30h39l10 18 10 17 1-17v-18h27l-5 28-4 29-39 1-39 2v-30zm960 5c0-13 5-27 10-30l10-6v25l12-12c19-19 28-14 28 16v29l-30 1-30 1v-24z"/></g><g fill="#d7b780" transform="matrix(.1 0 0 -.1 0 250)"><path d="M487 1719c-87-4-161-10-164-13-4-3 12-6 34-6h40l11-22 11-23v23l1 22h35c19 0 35-2 35-3 0-2-9-29-19-60l-20-57 8-4 8-5 11 23c6 13 16 43 22 65l11 41h59v-10c0-21-33-108-58-150-14-25-26-52-27-60v-15l-13 3-13 2 6-10c10-16 13-13 55 52l40 62 19 60 19 61 201 3 201 2v-90h20v101l-12 3c-28 9-373 12-521 5zm-91-72c3-10 9-15 12-12s0 11-7 18l-12 12 7-18zm-10-30c3-10 9-15 12-12s0 11-7 18l-12 12 7-18zm521-54c-4-3-7-59-7-124v-118l21-6 21-7 9 13 9 14v205h75l25-20 25-19 5-93 5-93 33-3 32-3v88l-1 88-13 23c-7 13-26 32-42 43l-29 19h-81c-44 0-84-3-87-7zm1216-61-11-7-6-50c-4-27-9-65-12-82l-5-33h19l7 50 7 50h78v-47c0-27 4-54 9-61l8-14 19 4 19 3 3 69 3 69-13 8c-7 5-30 9-51 9h-39l-5 20c-6 21-11 24-30 12zm-299-51-31-19-17-36-17-37 3-21 3-21 22-3 22-4 15 49c8 27 19 59 26 70l11 21h38l16-31 16-31-3-36-3-37h70l3 22 3 22-17 37-17 36-31 19-31 19h-50l-31-19zm-572-4c-29-17-48-44-57-86l-7-33 13-9c8-5 23-9 34-9h21l12 47c15 56 28 73 53 73h18l15-22c9-12 16-30 16-39v-16l-30-6c-16-4-30-10-30-14v-8h53l52 1 3 46 3 46-27 21-27 21h-46l-46-1-23-12zm268-14-31-28-6-41-5-41 11-8 12-7 23 6 23 6 6 36 6 36 17 19 17 19h39l15-40 16-40h47v61l-26 24-27 25h-107l-30-27zm837-93-5-20h9c5 0 9 9 9 20s-2 20-4 20-6-9-9-20zm-972-208c-5-4-11-19-12-34l-2-28h19v58l13 5 12 5-10 1c-5 0-14-3-20-7zm97-17v-30l5 18c2 9 2 23 0 30l-5 12v-30zm218-20v-45h20v90h-20v-45zm70 0v-45h20v28l1 27 17-27c9-16 22-28 29-28h13v90h-20v-27l-1-28-20 28c-11 15-25 27-30 27h-9v-45zm123 28-7-17 22-14c12-8 22-18 22-22v-8l-22 5-23 6 11-12 12-13 23 4 24 3 3 17 3 18-28 12-28 12 23 3c12 3 22 9 22 14v9h-51l-6-17zm110 3 17-13v-63h20v70h10c6 0 10 5 10 10v10h-37l-38-1 18-13zm97 9c0-3 10-25 21-48l22-42 13 45c15 49 11 63-9 35l-14-18-6 17c-6 15-27 23-27 11zm127-1c-4-4-7-25-7-46v-38h26l-4 38c-2 20-4 41-5 45l-2 8-8-7zm83-4v-10h19c11 0 23 5 26 10l6 10h-51v-10zm0-34c0-9 5-16 10-16 6 0 10 4 10 9 0 6-4 13-10 16l-10 6v-15zm-806-12c3-9 6-21 6-27v-11l11 11 12 12-6 15c-4 9-11 16-18 16h-11l6-16zm-504-118v-56l-152-1-153-1 25-8 25-8 138-1 137-1v119l-10 6-10 6v-55zm-800-9c-5-63-2-71 20-56l15 9h-24l-3 53-3 52-5-58zm930 33v-21l18 3c36 6 37 38 1 38h-19v-20zm62 0v-25l5 13c2 6 2 18 0 25l-5 12v-25zm50 0v-25l5 13c2 6 2 18 0 25l-5 12v-25zm18 1v-18h50l-1 21v21l-9-20-8-20-7 18c-9 23-25 22-25-2zm71-3 1-23 5 18c2 9 8 17 13 17s14-8 20-17l11-18-3 20-3 20-23 3-22 3 1-23zm69 8c0-8 7-17 16-20l17-6-12 14-12 14 13 5 13 5-17 1-18 1v-14zm87-6-5-19 12 2c24 4 35 37 12 37h-14l-5-20zm90 0-5-20h28v14c0 8-4 17-9 20l-9 6-5-20zm41 2-5-19h27v19c0 10-4 18-9 18s-11-8-13-18zm46 3c-4-9-4-19 0-22 3-4 6 1 6 10v17h29l5-17 5-18-2 20-2 20-18 3-17 3-6-16zm61 6-6-10 23-12 23-12-13 15-13 16 13 5 13 5-17 1c-9 1-19-3-23-8zm62 2c-4-3-7-13-7-22l1-16 10 18c12 21 29 22 29 2 0-8 5-15 10-15 14 0 13 13-2 28-13 13-31 16-41 5zm65-13v-25l5 13c2 6 2 18 0 25l-5 12v-25zm40 0v-25l5 13c2 6 2 18 0 25l-5 12v-25zm30 0v-25l5 13c2 6 2 18 0 25l-5 12v-25zm27 11 14-9-7-11-7-11h9c5 0 12 9 15 20l5 20h-43l14-9zm53-3c-15-15-16-28-2-28 6 0 10 7 10 15v15h29l5-17 5-18-2 20-2 20-15 3c-9 1-21-3-28-10zm98-4v-20l25-2 25-2-1 23-1 22-5-18-5-19-19 18-19 17v-19zm60-4v-20h10c6 0 10 6 10 14s6 17 13 19l12 5-22 1-23 1v-20zm57 0c3-11 9-20 13-20s10 9 13 20l5 20h-36l5-20z"/></g><g fill="#31acd4" transform="matrix(.1 0 0 -.1 0 250)"><path d="M907 1563c-4-3-7-59-7-124v-118l21-6 21-7 9 13 9 14v205h75l25-20 25-19 5-93 5-93 33-3 32-3v88l-1 88-13 23c-7 13-26 32-42 43l-29 19h-81c-44 0-84-3-87-7zm1216-61-11-7-6-50c-4-27-9-65-12-82l-5-33h19l7 50 7 50h78v-47c0-27 4-54 9-61l8-14 19 4 19 3 3 69 3 69-13 8c-7 5-30 9-51 9h-39l-5 20c-6 21-11 24-30 12zm-299-51-31-19-17-36-17-37 3-21 3-21 22-3 22-4 15 49c8 27 19 59 26 70l11 21h38l16-31 16-31-3-36-3-37h70l3 22 3 22-17 37-17 36-31 19-31 19h-50l-31-19zm-572-4c-29-17-48-44-57-86l-7-33 13-9c8-5 23-9 34-9h21l12 47c15 56 28 73 53 73h18l15-22c9-12 16-30 16-39v-16l-30-6c-16-4-30-10-30-14v-8h53l52 1 3 46 3 46-27 21-27 21h-46l-46-1-23-12zm268-14-31-28-6-41-5-41 11-8 12-7 23 6 23 6 6 36 6 36 17 19 17 19h39l15-40 16-40h47v61l-26 24-27 25h-107l-30-27zm837-93-5-20h9c5 0 9 9 9 20s-2 20-4 20-6-9-9-20zM1130 990v-21l18 3c36 6 37 38 1 38h-19v-20zm62 0v-25l5 13c2 6 2 18 0 25l-5 12v-25zm50 0v-25l5 13c2 6 2 18 0 25l-5 12v-25zm18 1v-18h50l-1 21v21l-9-20-8-20-7 18c-9 23-25 22-25-2zm71-3 1-23 5 18c2 9 8 17 13 17s14-8 20-17l11-18-3 20-3 20-23 3-22 3 1-23zm69 8c0-8 7-17 16-20l17-6-12 14-12 14 13 5 13 5-17 1-18 1v-14zm87-6-5-19 12 2c24 4 35 37 12 37h-14l-5-20zm90 0-5-20h28v14c0 8-4 17-9 20l-9 6-5-20zm41 2-5-19h27v19c0 10-4 18-9 18s-11-8-13-18zm46 3c-4-9-4-19 0-22 3-4 6 1 6 10v17h29l5-17 5-18-2 20-2 20-18 3-17 3-6-16zm61 6-6-10 23-12 23-12-13 15-13 16 13 5 13 5-17 1c-9 1-19-3-23-8zm62 2c-4-3-7-13-7-22l1-16 10 18c12 21 29 22 29 2 0-8 5-15 10-15 14 0 13 13-2 28-13 13-31 16-41 5zm65-13v-25l5 13c2 6 2 18 0 25l-5 12v-25zm40 0v-25l5 13c2 6 2 18 0 25l-5 12v-25zm30 0v-25l5 13c2 6 2 18 0 25l-5 12v-25zm27 11 14-9-7-11-7-11h9c5 0 12 9 15 20l5 20h-43l14-9zm53-3c-15-15-16-28-2-28 6 0 10 7 10 15v15h29l5-17 5-18-2 20-2 20-15 3c-9 1-21-3-28-10zm98-4v-20l25-2 25-2-1 23-1 22-5-18-5-19-19 18-19 17v-19zm60-4v-20h10c6 0 10 6 10 14s6 17 13 19l12 5-22 1-23 1v-20zm57 0c3-11 9-20 13-20s10 9 13 20l5 20h-36l5-20z"/></g></g></svg>